<?xml version="1.0" encoding="UTF-8" standalone="no"?>
<!DOCTYPE svg PUBLIC "-//W3C//DTD SVG 1.1//EN" "http://www.w3.org/Graphics/SVG/1.1/DTD/svg11.dtd">
<svg width="100%" height="100%" viewBox="0 0 431 68" version="1.1" xmlns="http://www.w3.org/2000/svg" xmlns:xlink="http://www.w3.org/1999/xlink" xml:space="preserve" xmlns:serif="http://www.serif.com/" style="fill-rule:evenodd;clip-rule:evenodd;stroke-linejoin:round;stroke-miterlimit:2;">
    <rect id="Artboard1" x="0" y="0" width="431" height="68" style="fill:none;"/>
    <g id="Artboard11" serif:id="Artboard1">
        <rect x="0" y="0" width="431" height="68" style="fill:none;"/>
        <g id="PIC" transform="matrix(0.848526,0,0,0.848526,5.83197,6.85548)">
            <path d="M116.558,17.737C115.211,17.737 114.029,17.443 113.012,16.853C111.995,16.264 111.205,15.441 110.642,14.385C110.078,13.33 109.796,12.089 109.796,10.664C109.796,9.24 110.078,7.999 110.642,6.943C111.205,5.888 111.992,5.068 113.002,4.485C114.013,3.903 115.198,3.611 116.558,3.611C117.918,3.611 119.107,3.903 120.124,4.485C121.141,5.068 121.931,5.888 122.494,6.943C123.058,7.999 123.34,9.233 123.34,10.645C123.34,12.07 123.058,13.314 122.494,14.376C121.931,15.438 121.141,16.264 120.124,16.853C119.107,17.443 117.918,17.737 116.558,17.737ZM116.558,15.172C117.698,15.172 118.589,14.774 119.23,13.977C119.871,13.181 120.192,12.076 120.192,10.664C120.192,9.24 119.874,8.135 119.24,7.352C118.605,6.568 117.711,6.176 116.558,6.176C115.431,6.176 114.547,6.568 113.906,7.352C113.265,8.135 112.944,9.24 112.944,10.664C112.944,12.076 113.265,13.181 113.906,13.977C114.547,14.774 115.431,15.172 116.558,15.172ZM125.671,17.524L125.671,3.825L135.523,3.825L135.523,6.176L128.547,6.176L128.547,9.343L132.161,9.343C133.625,9.343 134.781,9.693 135.63,10.392C136.478,11.092 136.902,12.102 136.902,13.424C136.902,14.745 136.478,15.759 135.63,16.465C134.781,17.171 133.625,17.524 132.161,17.524L125.671,17.524ZM128.547,15.192L131.753,15.192C132.53,15.192 133.1,15.049 133.463,14.764C133.826,14.479 134.007,14.032 134.007,13.424C134.007,12.841 133.826,12.404 133.463,12.112C133.1,11.821 132.53,11.675 131.753,11.675L128.547,11.675L128.547,15.192ZM156.43,20.827L156.43,17.524L138.904,17.524L138.904,3.825L141.857,3.825L141.857,15.036L146.54,15.036L146.54,3.825L149.493,3.825L149.493,15.036L154.157,15.036L154.157,3.825L157.13,3.825L157.13,15.036L159.073,15.036L159.073,20.827L156.43,20.827ZM160.88,17.524L160.88,3.825L163.678,3.825L163.678,12.627L170.518,3.825L172.752,3.825L172.752,17.524L169.954,17.524L169.954,8.683L163.095,17.524L160.88,17.524ZM175.511,17.524L175.511,3.825L178.523,3.825L178.523,9.324L184.896,9.324L184.896,3.825L187.908,3.825L187.908,17.524L184.896,17.524L184.896,11.83L178.523,11.83L178.523,17.524L175.511,17.524ZM197.313,17.737C195.836,17.737 194.573,17.446 193.524,16.863C192.474,16.28 191.668,15.461 191.105,14.405C190.541,13.349 190.259,12.102 190.259,10.664C190.259,9.24 190.541,7.999 191.105,6.943C191.668,5.888 192.474,5.068 193.524,4.485C194.573,3.903 195.836,3.611 197.313,3.611C198.219,3.611 199.087,3.754 199.916,4.039C200.745,4.324 201.426,4.712 201.957,5.204L201.024,7.594C200.441,7.141 199.855,6.807 199.265,6.594C198.676,6.38 198.058,6.273 197.41,6.273C196.101,6.273 195.114,6.652 194.447,7.41C193.779,8.168 193.446,9.252 193.446,10.664C193.446,12.076 193.779,13.165 194.447,13.929C195.114,14.693 196.101,15.075 197.41,15.075C198.058,15.075 198.676,14.968 199.265,14.755C199.855,14.541 200.441,14.207 201.024,13.754L201.957,16.144C201.426,16.623 200.745,17.009 199.916,17.3C199.087,17.592 198.219,17.737 197.313,17.737ZM203.939,17.524L203.939,3.825L206.95,3.825L206.95,9.479L208.602,9.479L212.08,3.825L215.383,3.825L211.361,10.043C212.307,10.522 213.078,11.37 213.673,12.588L216.063,17.524L212.799,17.524L211.011,13.637C210.726,13.029 210.386,12.598 209.991,12.345C209.596,12.093 209.094,11.966 208.485,11.966L206.95,11.966L206.95,17.524L203.939,17.524ZM217.443,17.524L217.443,3.825L220.241,3.825L220.241,12.627L227.081,3.825L229.315,3.825L229.315,17.524L226.517,17.524L226.517,8.683L219.658,17.524L217.443,17.524ZM244.121,17.737C242.645,17.737 241.382,17.446 240.332,16.863C239.283,16.28 238.477,15.461 237.913,14.405C237.35,13.349 237.068,12.102 237.068,10.664C237.068,9.24 237.35,7.999 237.913,6.943C238.477,5.888 239.283,5.068 240.332,4.485C241.382,3.903 242.645,3.611 244.121,3.611C245.028,3.611 245.896,3.754 246.725,4.039C247.554,4.324 248.234,4.712 248.765,5.204L247.833,7.594C247.25,7.141 246.664,6.807 246.074,6.594C245.485,6.38 244.866,6.273 244.219,6.273C242.91,6.273 241.923,6.652 241.255,7.41C240.588,8.168 240.255,9.252 240.255,10.664C240.255,12.076 240.588,13.165 241.255,13.929C241.923,14.693 242.91,15.075 244.219,15.075C244.866,15.075 245.485,14.968 246.074,14.755C246.664,14.541 247.25,14.207 247.833,13.754L248.765,16.144C248.234,16.623 247.554,17.009 246.725,17.3C245.896,17.592 245.028,17.737 244.121,17.737ZM253.176,17.524L253.176,6.312L249.29,6.312L249.29,3.825L256.207,3.825L256.207,9.343L259.666,9.343C261.143,9.343 262.302,9.693 263.144,10.392C263.986,11.092 264.407,12.102 264.407,13.424C264.407,14.745 263.986,15.759 263.144,16.465C262.302,17.171 261.143,17.524 259.666,17.524L253.176,17.524ZM256.207,15.192L259.277,15.192C260.78,15.192 261.531,14.602 261.531,13.424C261.531,12.258 260.78,11.675 259.277,11.675L256.207,11.675L256.207,15.192ZM266.409,17.524L266.409,3.825L272.685,3.825C274.148,3.825 275.279,4.142 276.075,4.777C276.872,5.412 277.27,6.28 277.27,7.381C277.27,8.106 277.089,8.731 276.726,9.256C276.364,9.78 275.858,10.172 275.211,10.431C275.988,10.652 276.587,11.04 277.008,11.597C277.429,12.154 277.64,12.841 277.64,13.657C277.64,14.874 277.215,15.823 276.367,16.503C275.518,17.183 274.362,17.524 272.898,17.524L266.409,17.524ZM269.284,15.289L272.49,15.289C273.268,15.289 273.838,15.14 274.2,14.842C274.563,14.544 274.744,14.091 274.744,13.482C274.744,12.886 274.563,12.439 274.2,12.141C273.838,11.843 273.268,11.694 272.49,11.694L269.284,11.694L269.284,15.289ZM269.284,9.46L272.16,9.46C273.637,9.46 274.375,8.89 274.375,7.75C274.375,6.623 273.637,6.059 272.16,6.059L269.284,6.059L269.284,9.46ZM279.913,17.524L279.913,3.825L289.298,3.825L289.298,6.176L282.789,6.176L282.789,9.382L288.871,9.382L288.871,11.753L282.789,11.753L282.789,15.172L289.298,15.172L289.298,17.524L279.913,17.524ZM294.933,17.524L294.933,6.312L290.406,6.312L290.406,3.825L302.472,3.825L302.472,6.312L297.945,6.312L297.945,17.524L294.933,17.524ZM110.204,41.248L110.204,27.55L122.465,27.55L122.465,41.248L119.453,41.248L119.453,30.037L113.216,30.037L113.216,41.248L110.204,41.248ZM131.578,41.462C130.231,41.462 129.049,41.168 128.032,40.578C127.015,39.989 126.225,39.166 125.662,38.11C125.098,37.055 124.816,35.814 124.816,34.389C124.816,32.964 125.098,31.724 125.662,30.668C126.225,29.613 127.012,28.793 128.022,28.21C129.033,27.628 130.218,27.336 131.578,27.336C132.938,27.336 134.127,27.628 135.144,28.21C136.161,28.793 136.951,29.613 137.514,30.668C138.078,31.724 138.36,32.958 138.36,34.37C138.36,35.795 138.078,37.038 137.514,38.101C136.951,39.163 136.161,39.989 135.144,40.578C134.127,41.168 132.938,41.462 131.578,41.462ZM131.578,38.897C132.718,38.897 133.609,38.499 134.25,37.702C134.891,36.906 135.212,35.801 135.212,34.389C135.212,32.964 134.894,31.86 134.26,31.076C133.625,30.293 132.731,29.901 131.578,29.901C130.451,29.901 129.567,30.293 128.926,31.076C128.285,31.86 127.964,32.964 127.964,34.389C127.964,35.801 128.285,36.906 128.926,37.702C129.567,38.499 130.451,38.897 131.578,38.897ZM146.093,41.248L146.093,27.55L149.105,27.55L149.105,33.049L155.478,33.049L155.478,27.55L158.49,27.55L158.49,41.248L155.478,41.248L155.478,35.555L149.105,35.555L149.105,41.248L146.093,41.248ZM159.675,41.248L165.971,27.55L168.4,27.55L174.695,41.248L171.664,41.248L170.382,38.276L163.989,38.276L162.726,41.248L159.675,41.248ZM167.156,30.756L164.999,35.924L169.391,35.924L167.195,30.756L167.156,30.756ZM175.88,41.248L175.88,27.55L182.137,27.55C183.666,27.55 184.845,27.935 185.674,28.706C186.503,29.477 186.917,30.549 186.917,31.922C186.917,33.295 186.503,34.37 185.674,35.147C184.845,35.924 183.666,36.313 182.137,36.313L178.892,36.313L178.892,41.248L175.88,41.248ZM178.892,33.981L181.632,33.981C183.225,33.981 184.022,33.295 184.022,31.922C184.022,30.575 183.225,29.901 181.632,29.901L178.892,29.901L178.892,33.981ZM188.783,41.248L188.783,27.55L191.794,27.55L191.794,33.204L193.446,33.204L196.924,27.55L200.227,27.55L196.205,33.768C197.151,34.247 197.921,35.095 198.517,36.313L200.907,41.248L197.643,41.248L195.855,37.362C195.57,36.753 195.23,36.323 194.835,36.07C194.44,35.818 193.938,35.691 193.329,35.691L191.794,35.691L191.794,41.248L188.783,41.248ZM208.31,41.462C206.963,41.462 205.781,41.168 204.764,40.578C203.747,39.989 202.957,39.166 202.394,38.11C201.83,37.055 201.549,35.814 201.549,34.389C201.549,32.964 201.83,31.724 202.394,30.668C202.957,29.613 203.744,28.793 204.755,28.21C205.765,27.628 206.95,27.336 208.31,27.336C209.671,27.336 210.859,27.628 211.876,28.21C212.893,28.793 213.683,29.613 214.247,30.668C214.81,31.724 215.092,32.958 215.092,34.37C215.092,35.795 214.81,37.038 214.247,38.101C213.683,39.163 212.893,39.989 211.876,40.578C210.859,41.168 209.671,41.462 208.31,41.462ZM208.31,38.897C209.45,38.897 210.341,38.499 210.982,37.702C211.623,36.906 211.944,35.801 211.944,34.389C211.944,32.964 211.627,31.86 210.992,31.076C210.357,30.293 209.463,29.901 208.31,29.901C207.184,29.901 206.299,30.293 205.658,31.076C205.017,31.86 204.696,32.964 204.696,34.389C204.696,35.801 205.017,36.906 205.658,37.702C206.299,38.499 207.184,38.897 208.31,38.897ZM219.872,41.248L219.872,30.037L215.344,30.037L215.344,27.55L227.411,27.55L227.411,30.037L222.884,30.037L222.884,41.248L219.872,41.248ZM228.888,41.248L228.888,27.55L231.686,27.55L231.686,36.352L238.525,27.55L240.76,27.55L240.76,41.248L237.962,41.248L237.962,32.407L231.103,41.248L228.888,41.248ZM251.525,41.248L251.525,36.158C251.201,36.313 250.786,36.433 250.281,36.517C249.776,36.601 249.271,36.643 248.765,36.643C246.952,36.643 245.556,36.164 244.578,35.206C243.6,34.247 243.111,32.783 243.111,30.814L243.111,27.55L246.123,27.55L246.123,30.698C246.123,31.902 246.375,32.77 246.881,33.301C247.386,33.832 248.131,34.098 249.115,34.098C249.517,34.098 249.931,34.059 250.359,33.981C250.786,33.904 251.175,33.774 251.525,33.593L251.525,27.55L254.536,27.55L254.536,41.248L251.525,41.248ZM257.296,41.248L257.296,27.55L260.307,27.55L260.307,33.049L266.681,33.049L266.681,27.55L269.692,27.55L269.692,41.248L266.681,41.248L266.681,35.555L260.307,35.555L260.307,41.248L257.296,41.248ZM272.452,41.248L272.452,27.55L275.25,27.55L275.25,36.352L282.089,27.55L284.324,27.55L284.324,41.248L281.526,41.248L281.526,32.407L274.667,41.248L272.452,41.248ZM292.485,41.248L292.485,27.55L298.761,27.55C300.225,27.55 301.355,27.867 302.152,28.502C302.948,29.137 303.347,30.005 303.347,31.106C303.347,31.831 303.165,32.456 302.802,32.981C302.44,33.505 301.935,33.897 301.287,34.156C302.064,34.376 302.663,34.765 303.084,35.322C303.505,35.879 303.716,36.566 303.716,37.382C303.716,38.599 303.291,39.548 302.443,40.228C301.594,40.908 300.438,41.248 298.975,41.248L292.485,41.248ZM295.36,39.014L298.567,39.014C299.344,39.014 299.914,38.865 300.276,38.567C300.639,38.269 300.821,37.816 300.821,37.207C300.821,36.611 300.639,36.164 300.276,35.866C299.914,35.568 299.344,35.419 298.567,35.419L295.36,35.419L295.36,39.014ZM295.36,33.185L298.236,33.185C299.713,33.185 300.451,32.615 300.451,31.475C300.451,30.348 299.713,29.784 298.236,29.784L295.36,29.784L295.36,33.185ZM305.989,41.248L305.989,27.55L315.374,27.55L315.374,29.901L308.865,29.901L308.865,33.107L314.947,33.107L314.947,35.478L308.865,35.478L308.865,38.897L315.374,38.897L315.374,41.248L305.989,41.248ZM335.271,44.552L335.271,41.248L317.745,41.248L317.745,27.55L320.698,27.55L320.698,38.761L325.381,38.761L325.381,27.55L328.335,27.55L328.335,38.761L332.998,38.761L332.998,27.55L335.971,27.55L335.971,38.761L337.914,38.761L337.914,44.552L335.271,44.552ZM339.721,41.248L339.721,27.55L349.106,27.55L349.106,29.901L342.597,29.901L342.597,33.107L348.679,33.107L348.679,35.478L342.597,35.478L342.597,38.897L349.106,38.897L349.106,41.248L339.721,41.248ZM358.122,41.462C356.645,41.462 355.382,41.171 354.333,40.588C353.284,40.005 352.477,39.186 351.914,38.13C351.35,37.074 351.069,35.827 351.069,34.389C351.069,32.964 351.35,31.724 351.914,30.668C352.477,29.613 353.284,28.793 354.333,28.21C355.382,27.628 356.645,27.336 358.122,27.336C359.029,27.336 359.897,27.479 360.726,27.764C361.555,28.049 362.235,28.437 362.766,28.929L361.833,31.319C361.25,30.866 360.664,30.532 360.075,30.319C359.485,30.105 358.867,29.998 358.219,29.998C356.911,29.998 355.923,30.377 355.256,31.135C354.589,31.893 354.255,32.977 354.255,34.389C354.255,35.801 354.589,36.89 355.256,37.654C355.923,38.418 356.911,38.8 358.219,38.8C358.867,38.8 359.485,38.693 360.075,38.48C360.664,38.266 361.25,37.932 361.833,37.479L362.766,39.869C362.235,40.348 361.555,40.734 360.726,41.025C359.897,41.316 359.029,41.462 358.122,41.462ZM367.818,41.248L367.818,30.037L363.291,30.037L363.291,27.55L375.357,27.55L375.357,30.037L370.83,30.037L370.83,41.248L367.818,41.248ZM376.834,41.248L376.834,27.55L383.11,27.55C384.574,27.55 385.704,27.867 386.501,28.502C387.297,29.137 387.696,30.005 387.696,31.106C387.696,31.831 387.514,32.456 387.152,32.981C386.789,33.505 386.284,33.897 385.636,34.156C386.413,34.376 387.012,34.765 387.433,35.322C387.854,35.879 388.065,36.566 388.065,37.382C388.065,38.599 387.641,39.548 386.792,40.228C385.944,40.908 384.787,41.248 383.324,41.248L376.834,41.248ZM379.71,39.014L382.916,39.014C383.693,39.014 384.263,38.865 384.626,38.567C384.988,38.269 385.17,37.816 385.17,37.207C385.17,36.611 384.988,36.164 384.626,35.866C384.263,35.568 383.693,35.419 382.916,35.419L379.71,35.419L379.71,39.014ZM379.71,33.185L382.585,33.185C384.062,33.185 384.8,32.615 384.8,31.475C384.8,30.348 384.062,29.784 382.585,29.784L379.71,29.784L379.71,33.185ZM388.57,41.248L394.866,27.55L397.294,27.55L403.59,41.248L400.559,41.248L399.276,38.276L392.884,38.276L391.621,41.248L388.57,41.248ZM396.051,30.756L393.894,35.924L398.285,35.924L396.09,30.756L396.051,30.756Z" style="fill:rgb(59,57,83);stroke:rgb(59,57,83);stroke-width:0.77px;"/>
        </g>
        <g id="LOGO">
            <path d="M62.695,4.565C62.695,4.565 61.462,5.068 59.255,6.168C57.805,6.89 56.206,7.647 54.315,8.793C53.139,9.506 51.989,10.278 50.825,11.186C50.357,11.552 49.906,11.943 49.487,12.37C48.927,12.942 48.415,13.552 47.941,14.186C47.178,15.21 46.57,16.218 45.953,17.241C45.241,18.42 44.689,19.436 44.147,20.478C42.505,23.635 41.682,25.578 41.682,25.578C41.682,25.578 43.625,24.755 46.782,23.113C47.824,22.571 48.84,22.019 50.019,21.307C51.042,20.69 52.051,20.082 53.074,19.319C53.708,18.845 54.318,18.333 54.89,17.773C55.317,17.354 55.708,16.903 56.074,16.435C56.982,15.271 57.755,14.121 58.467,12.945C59.613,11.054 60.37,9.455 61.092,8.005C62.192,5.798 62.695,4.565 62.695,4.565Z" style="fill:rgb(251,83,47);"/>
            <path d="M26.001,41.259C26.001,41.259 24.768,41.762 22.56,42.862C21.111,43.584 19.512,44.341 17.621,45.487C16.445,46.2 15.295,46.972 14.131,47.88C13.663,48.246 13.212,48.638 12.793,49.064C12.233,49.636 11.721,50.246 11.247,50.881C10.484,51.904 9.876,52.912 9.259,53.935C8.547,55.114 7.995,56.13 7.453,57.172C5.811,60.33 4.988,62.272 4.988,62.272C4.988,62.272 6.931,61.449 10.088,59.807C11.13,59.265 12.146,58.713 13.325,58.001C14.348,57.384 15.356,56.776 16.38,56.013C17.014,55.539 17.624,55.027 18.196,54.467C18.623,54.048 19.014,53.598 19.38,53.129C20.288,51.965 21.06,50.815 21.773,49.639C22.919,47.748 23.676,46.149 24.398,44.7C25.498,42.492 26.001,41.259 26.001,41.259Z" style="fill:rgb(42,129,211);"/>
            <path d="M4.988,4.565C4.988,4.565 5.491,5.798 6.591,8.005C7.313,9.455 8.07,11.054 9.216,12.945C9.928,14.121 10.701,15.271 11.609,16.435C11.975,16.903 12.366,17.354 12.793,17.773C13.365,18.333 13.975,18.845 14.609,19.319C15.633,20.082 16.641,20.69 17.664,21.307C18.843,22.019 19.859,22.571 20.901,23.113C24.058,24.755 26.001,25.578 26.001,25.578C26.001,25.578 25.178,23.635 23.536,20.478C22.994,19.436 22.442,18.42 21.73,17.241C21.113,16.218 20.505,15.21 19.742,14.186C19.268,13.552 18.756,12.942 18.196,12.37C17.777,11.943 17.326,11.552 16.858,11.186C15.694,10.278 14.544,9.506 13.368,8.793C11.477,7.647 9.878,6.89 8.428,6.168C6.221,5.068 4.988,4.565 4.988,4.565Z" style="fill:rgb(180,45,148);"/>
            <path d="M41.682,41.259C41.682,41.259 42.185,42.492 43.285,44.7C44.007,46.149 44.764,47.748 45.91,49.639C46.623,50.815 47.395,51.965 48.303,53.129C48.669,53.598 49.061,54.048 49.487,54.467C50.059,55.027 50.669,55.539 51.303,56.013C52.327,56.776 53.335,57.384 54.358,58.001C55.537,58.713 56.553,59.265 57.595,59.807C60.753,61.449 62.695,62.272 62.695,62.272C62.695,62.272 61.872,60.33 60.23,57.172C59.688,56.13 59.136,55.114 58.424,53.935C57.807,52.912 57.199,51.904 56.436,50.881C55.962,50.246 55.45,49.636 54.89,49.064C54.471,48.638 54.021,48.246 53.552,47.88C52.388,46.972 51.238,46.2 50.062,45.487C48.171,44.341 46.572,43.584 45.123,42.862C42.915,41.762 41.682,41.259 41.682,41.259Z" style="fill:rgb(135,192,65);"/>
            <path d="M63.825,18.693C63.825,18.693 62.965,18.896 61.137,19.543C59.971,19.956 58.847,20.306 57.327,21.04C56.428,21.474 55.592,21.939 54.715,22.555C54.372,22.795 54.047,23.061 53.753,23.362C53.359,23.768 53.017,24.21 52.709,24.677C52.195,25.458 51.851,26.189 51.473,26.979C51.024,27.917 50.735,28.633 50.42,29.463C49.436,32.058 49.084,33.434 49.084,33.434C49.084,33.434 50.461,33.083 53.055,32.098C53.885,31.783 54.602,31.495 55.54,31.045C56.329,30.667 57.06,30.323 57.841,29.809C58.308,29.502 58.751,29.159 59.156,28.765C59.458,28.471 59.723,28.146 59.964,27.804C60.579,26.927 61.045,26.09 61.479,25.192C62.213,23.672 62.562,22.547 62.975,21.381C63.622,19.553 63.825,18.693 63.825,18.693Z" style="fill:rgb(255,172,36);"/>
            <path d="M49.084,33.434C49.084,33.434 49.287,34.293 49.934,36.122C50.347,37.287 50.697,38.412 51.431,39.932C51.865,40.831 52.33,41.667 52.946,42.544C53.186,42.886 53.452,43.212 53.753,43.505C54.159,43.9 54.601,44.242 55.068,44.549C55.849,45.064 56.58,45.407 57.369,45.785C58.308,46.235 59.024,46.524 59.854,46.839C62.449,47.823 63.825,48.174 63.825,48.174C63.825,48.174 63.474,46.798 62.489,44.204C62.174,43.374 61.885,42.657 61.436,41.719C61.058,40.93 60.714,40.198 60.2,39.417C59.893,38.95 59.55,38.508 59.156,38.103C58.862,37.801 58.537,37.536 58.195,37.295C57.318,36.679 56.481,36.214 55.582,35.78C54.062,35.046 52.938,34.697 51.772,34.284C49.944,33.637 49.084,33.434 49.084,33.434Z" style="fill:rgb(255,172,36);"/>
            <path d="M3.825,48.174C3.825,48.174 4.684,47.972 6.513,47.324C7.678,46.912 8.803,46.562 10.323,45.828C11.222,45.394 12.058,44.929 12.935,44.313C13.277,44.073 13.603,43.807 13.896,43.505C14.29,43.1 14.633,42.658 14.94,42.191C15.454,41.41 15.798,40.679 16.176,39.889C16.626,38.951 16.915,38.235 17.229,37.405C18.214,34.81 18.565,33.434 18.565,33.434C18.565,33.434 17.189,33.785 14.594,34.77C13.765,35.085 13.048,35.373 12.11,35.823C11.321,36.201 10.589,36.545 9.808,37.059C9.341,37.366 8.899,37.709 8.494,38.103C8.192,38.396 7.926,38.722 7.686,39.064C7.07,39.941 6.605,40.778 6.171,41.676C5.437,43.196 5.087,44.321 4.675,45.487C4.028,47.315 3.825,48.174 3.825,48.174Z" style="fill:rgb(105,70,159);"/>
            <path d="M18.565,33.434C18.565,33.434 18.362,32.574 17.715,30.746C17.303,29.58 16.953,28.456 16.219,26.936C15.785,26.037 15.32,25.201 14.704,24.324C14.464,23.981 14.198,23.656 13.896,23.362C13.491,22.968 13.049,22.626 12.582,22.318C11.801,21.804 11.069,21.461 10.28,21.082C9.342,20.633 8.625,20.344 7.796,20.029C5.201,19.045 3.825,18.693 3.825,18.693C3.825,18.693 4.176,20.07 5.161,22.664C5.476,23.494 5.764,24.211 6.214,25.149C6.592,25.938 6.936,26.669 7.45,27.451C7.757,27.917 8.1,28.36 8.494,28.765C8.787,29.067 9.113,29.332 9.455,29.573C10.332,30.189 11.168,30.654 12.067,31.088C13.587,31.822 14.712,32.171 15.878,32.584C17.706,33.231 18.565,33.434 18.565,33.434Z" style="fill:rgb(105,70,159);"/>
            <path d="M48.833,63.638C48.833,63.638 48.619,62.763 47.955,60.922C47.53,59.746 47.166,58.602 46.416,57.069C45.972,56.16 45.495,55.311 44.868,54.424C44.623,54.077 44.353,53.747 44.046,53.448C43.635,53.048 43.186,52.699 42.713,52.385C41.923,51.862 41.181,51.508 40.383,51.121C39.436,50.662 38.708,50.363 37.87,50.04C35.256,49.03 33.857,48.661 33.857,48.661C33.857,48.661 34.226,50.061 35.235,52.675C35.559,53.512 35.857,54.241 36.317,55.188C36.704,55.985 37.057,56.728 37.581,57.518C37.894,57.991 38.243,58.439 38.644,58.851C38.942,59.157 39.272,59.428 39.619,59.673C40.507,60.299 41.355,60.776 42.264,61.221C43.797,61.97 44.941,62.335 46.117,62.759C47.958,63.424 48.833,63.638 48.833,63.638Z" style="fill:rgb(0,157,71);"/>
            <path d="M33.857,48.661C33.857,48.661 32.982,48.875 31.141,49.54C29.965,49.964 28.821,50.329 27.288,51.078C26.379,51.523 25.53,52 24.643,52.626C24.296,52.872 23.966,53.142 23.668,53.448C23.267,53.86 22.918,54.308 22.605,54.782C22.081,55.572 21.727,56.314 21.34,57.112C20.881,58.058 20.582,58.787 20.259,59.624C19.249,62.238 18.881,63.638 18.881,63.638C18.881,63.638 20.28,63.269 22.894,62.259C23.731,61.936 24.46,61.637 25.407,61.178C26.205,60.791 26.947,60.437 27.737,59.914C28.21,59.6 28.659,59.251 29.07,58.851C29.376,58.553 29.647,58.223 29.892,57.875C30.519,56.988 30.996,56.139 31.44,55.23C32.189,53.697 32.554,52.553 32.979,51.377C33.643,49.536 33.857,48.661 33.857,48.661Z" style="fill:rgb(0,157,71);"/>
            <path d="M19.487,3.825C19.487,3.825 19.673,4.66 20.293,6.468C20.687,7.618 21.012,8.712 21.722,10.212C22.14,11.094 22.586,11.912 23.185,12.772C23.418,13.107 23.676,13.425 23.971,13.711C24.366,14.095 24.799,14.428 25.255,14.725C26.023,15.225 26.737,15.553 27.513,15.917C28.437,16.351 29.135,16.624 29.953,16.926C32.518,17.871 33.857,18.195 33.857,18.195C33.857,18.195 33.533,16.855 32.588,14.291C32.286,13.473 32.013,12.775 31.579,11.85C31.215,11.075 30.887,10.361 30.388,9.593C30.09,9.136 29.758,8.704 29.373,8.309C29.087,8.014 28.769,7.756 28.434,7.523C27.574,6.924 26.756,6.477 25.874,6.06C24.374,5.35 23.28,5.025 22.13,4.63C20.322,4.01 19.487,3.825 19.487,3.825Z" style="fill:rgb(226,29,49);"/>
            <path d="M33.857,18.195C33.857,18.195 34.692,18.009 36.5,17.389C37.65,16.995 38.744,16.669 40.244,15.96C41.126,15.542 41.944,15.095 42.804,14.496C43.139,14.263 43.457,14.005 43.743,13.711C44.127,13.316 44.46,12.883 44.758,12.426C45.257,11.659 45.585,10.945 45.949,10.169C46.383,9.244 46.656,8.547 46.958,7.729C47.903,5.164 48.227,3.825 48.227,3.825C48.227,3.825 46.887,4.149 44.323,5.094C43.505,5.395 42.807,5.668 41.883,6.103C41.107,6.467 40.393,6.795 39.625,7.294C39.168,7.591 38.736,7.924 38.341,8.309C38.046,8.595 37.788,8.913 37.555,9.247C36.956,10.108 36.509,10.925 36.092,11.808C35.382,13.308 35.057,14.402 34.662,15.551C34.042,17.36 33.857,18.195 33.857,18.195Z" style="fill:rgb(226,29,49);"/>
            <circle cx="33.857" cy="33.434" r="7.37" style="fill:rgb(59,57,83);"/>
        </g>
        <g id="OSNV" transform="matrix(0.940018,0,0,0.388545,39.2132,75.5738)">
            <path d="M63.006,-41.254L63.006,-61.702L70.152,-61.702L70.152,-41.254L68.917,-41.254L68.917,-59.179L64.253,-59.179L64.253,-41.254L63.006,-41.254ZM72.13,-41.254L72.13,-61.702L75.63,-61.702C76.542,-61.702 77.245,-61.156 77.74,-60.063C78.236,-58.971 78.484,-57.438 78.484,-55.466C78.484,-53.475 78.236,-51.932 77.74,-50.84C77.245,-49.747 76.542,-49.201 75.63,-49.201L73.377,-49.201L73.377,-41.254L72.13,-41.254ZM73.377,-51.609L75.451,-51.609C76.665,-51.609 77.273,-52.894 77.273,-55.466C77.273,-58.019 76.665,-59.295 75.451,-59.295L73.377,-59.295L73.377,-51.609ZM79.827,-41.254L79.827,-61.702L85.293,-61.702L85.293,-59.266L81.025,-59.266L81.025,-52.856L85.042,-52.856L85.042,-50.419L81.025,-50.419L81.025,-43.69L85.293,-43.69L85.293,-41.254L79.827,-41.254ZM86.888,-41.254L86.888,-61.702L90.413,-61.702C91.292,-61.702 91.973,-61.233 92.457,-60.295C92.94,-59.358 93.182,-58.048 93.182,-56.365C93.182,-55.263 93.062,-54.316 92.822,-53.523C92.583,-52.73 92.255,-52.15 91.839,-51.783C92.327,-51.473 92.706,-50.903 92.978,-50.071C93.25,-49.24 93.386,-48.186 93.386,-46.91C93.386,-45.092 93.136,-43.695 92.636,-42.719C92.137,-41.742 91.444,-41.254 90.556,-41.254L86.888,-41.254ZM88.087,-52.769L90.221,-52.769C91.388,-52.769 91.971,-53.871 91.971,-56.075C91.971,-58.28 91.388,-59.382 90.221,-59.382L88.087,-59.382L88.087,-52.769ZM88.087,-43.574L90.413,-43.574C91.587,-43.574 92.175,-44.725 92.175,-47.026C92.175,-49.307 91.587,-50.448 90.413,-50.448L88.087,-50.448L88.087,-43.574ZM94.093,-41.254L97.858,-61.702L98.889,-61.702L102.665,-41.254L101.394,-41.254L100.507,-46.243L96.227,-46.243L95.352,-41.254L94.093,-41.254ZM98.361,-58.367L96.671,-48.679L100.087,-48.679L98.385,-58.367L98.361,-58.367ZM103.768,-41.254L103.768,-61.702L105.015,-61.702L105.015,-52.885L109.75,-52.885L109.75,-61.702L110.985,-61.702L110.985,-41.254L109.75,-41.254L109.75,-50.361L105.015,-50.361L105.015,-41.254L103.768,-41.254ZM115.025,-41.254L115.025,-59.179L112.028,-59.179L112.028,-61.702L119.257,-61.702L119.257,-59.179L116.26,-59.179L116.26,-41.254L115.025,-41.254ZM120.288,-41.254L120.288,-61.702L121.439,-61.702L121.439,-46.156L126.295,-61.702L127.23,-61.702L127.23,-41.254L126.079,-41.254L126.079,-56.858L121.224,-41.254L120.288,-41.254ZM129.196,-41.254L129.196,-61.702L132.721,-61.702C133.6,-61.702 134.281,-61.233 134.765,-60.295C135.248,-59.358 135.49,-58.048 135.49,-56.365C135.49,-55.263 135.37,-54.316 135.131,-53.523C134.891,-52.73 134.563,-52.15 134.147,-51.783C134.635,-51.473 135.015,-50.903 135.286,-50.071C135.558,-49.24 135.694,-48.186 135.694,-46.91C135.694,-45.092 135.444,-43.695 134.945,-42.719C134.445,-41.742 133.752,-41.254 132.865,-41.254L129.196,-41.254ZM130.395,-43.574L132.721,-43.574C133.896,-43.574 134.483,-44.725 134.483,-47.026C134.483,-49.307 133.896,-50.448 132.721,-50.448L130.395,-50.448L130.395,-43.574ZM130.395,-52.769L132.529,-52.769C133.696,-52.769 134.279,-53.871 134.279,-56.075C134.279,-58.28 133.696,-59.382 132.529,-59.382L130.395,-59.382L130.395,-52.769ZM137.372,-41.254L137.372,-61.702L138.619,-61.702L138.619,-52.885L143.355,-52.885L143.355,-61.702L144.59,-61.702L144.59,-41.254L143.355,-41.254L143.355,-50.361L138.619,-50.361L138.619,-41.254L137.372,-41.254ZM150.236,-40.993C149.429,-40.993 148.73,-41.423 148.138,-42.284C147.547,-43.144 147.089,-44.362 146.766,-45.938C146.442,-47.514 146.28,-49.366 146.28,-51.493C146.28,-53.639 146.442,-55.495 146.766,-57.061C147.089,-58.628 147.547,-59.836 148.138,-60.687C148.73,-61.538 149.429,-61.963 150.236,-61.963C151.036,-61.963 151.733,-61.538 152.328,-60.687C152.924,-59.836 153.383,-58.628 153.707,-57.061C154.031,-55.495 154.193,-53.649 154.193,-51.522C154.193,-49.375 154.031,-47.514 153.707,-45.938C153.383,-44.362 152.924,-43.144 152.328,-42.284C151.733,-41.423 151.036,-40.993 150.236,-40.993ZM150.236,-43.603C151.076,-43.603 151.729,-44.295 152.196,-45.677C152.664,-47.06 152.898,-48.998 152.898,-51.493C152.898,-53.987 152.666,-55.921 152.202,-57.293C151.739,-58.666 151.084,-59.353 150.236,-59.353C149.397,-59.353 148.744,-58.666 148.276,-57.293C147.809,-55.921 147.575,-53.987 147.575,-51.493C147.575,-48.998 147.809,-47.06 148.276,-45.677C148.744,-44.295 149.397,-43.603 150.236,-43.603ZM155.475,-47.809L155.475,-50.187L158.928,-50.187L158.928,-47.809L155.475,-47.809ZM160.762,-41.254L160.762,-61.702L161.913,-61.702L161.913,-46.156L166.769,-61.702L167.704,-61.702L167.704,-41.254L166.553,-41.254L166.553,-56.858L161.698,-41.254L160.762,-41.254ZM169.67,-41.254L169.67,-61.702L170.917,-61.702L170.917,-52.885L175.652,-52.885L175.652,-61.702L176.887,-61.702L176.887,-41.254L175.652,-41.254L175.652,-50.361L170.917,-50.361L170.917,-41.254L169.67,-41.254ZM182.438,-40.558L182.438,-42.878C181.639,-42.878 180.949,-43.226 180.37,-43.922C179.791,-44.618 179.347,-45.624 179.039,-46.939C178.732,-48.254 178.578,-49.82 178.578,-51.638C178.578,-54.403 178.915,-56.554 179.591,-58.091C180.266,-59.628 181.215,-60.397 182.438,-60.397L182.438,-62.543L183.685,-62.543L183.685,-60.397C184.908,-60.397 185.857,-59.628 186.532,-58.091C187.208,-56.554 187.545,-54.403 187.545,-51.638C187.545,-49.801 187.389,-48.229 187.078,-46.924C186.766,-45.619 186.322,-44.618 185.747,-43.922C185.172,-43.226 184.484,-42.878 183.685,-42.878L183.685,-40.558L182.438,-40.558ZM183.805,-58.048L183.673,-58.048L183.673,-45.228L183.805,-45.228C184.532,-45.228 185.124,-45.783 185.579,-46.895C186.035,-48.007 186.262,-49.588 186.262,-51.638C186.262,-53.745 186.039,-55.34 185.591,-56.423C185.144,-57.506 184.548,-58.048 183.805,-58.048ZM182.306,-45.228L182.438,-45.228L182.438,-58.048L182.306,-58.048C181.563,-58.048 180.967,-57.506 180.52,-56.423C180.072,-55.34 179.849,-53.745 179.849,-51.638C179.849,-49.588 180.078,-48.007 180.538,-46.895C180.997,-45.783 181.587,-45.228 182.306,-45.228ZM192.88,-40.993C192.073,-40.993 191.374,-41.423 190.782,-42.284C190.191,-43.144 189.733,-44.362 189.41,-45.938C189.086,-47.514 188.924,-49.366 188.924,-51.493C188.924,-53.639 189.086,-55.495 189.41,-57.061C189.733,-58.628 190.191,-59.836 190.782,-60.687C191.374,-61.538 192.073,-61.963 192.88,-61.963C193.68,-61.963 194.377,-61.538 194.972,-60.687C195.568,-59.836 196.027,-58.628 196.351,-57.061C196.675,-55.495 196.837,-53.649 196.837,-51.522C196.837,-49.375 196.675,-47.514 196.351,-45.938C196.027,-44.362 195.568,-43.144 194.972,-42.284C194.377,-41.423 193.68,-40.993 192.88,-40.993ZM192.88,-43.603C193.719,-43.603 194.373,-44.295 194.84,-45.677C195.308,-47.06 195.542,-48.998 195.542,-51.493C195.542,-53.987 195.31,-55.921 194.846,-57.293C194.383,-58.666 193.727,-59.353 192.88,-59.353C192.041,-59.353 191.388,-58.666 190.92,-57.293C190.453,-55.921 190.219,-53.987 190.219,-51.493C190.219,-48.998 190.453,-47.06 190.92,-45.677C191.388,-44.295 192.041,-43.603 192.88,-43.603ZM198.503,-41.254L198.503,-61.702L202.004,-61.702C202.915,-61.702 203.618,-61.156 204.114,-60.063C204.609,-58.971 204.857,-57.438 204.857,-55.466C204.857,-53.475 204.609,-51.932 204.114,-50.84C203.618,-49.747 202.915,-49.201 202.004,-49.201L199.75,-49.201L199.75,-41.254L198.503,-41.254ZM199.75,-51.609L201.824,-51.609C203.039,-51.609 203.646,-52.894 203.646,-55.466C203.646,-58.019 203.039,-59.295 201.824,-59.295L199.75,-59.295L199.75,-51.609ZM206.224,-41.254L206.224,-61.702L207.267,-61.702L210.396,-47.577L213.513,-61.702L214.532,-61.702L214.532,-41.254L213.417,-41.254L213.417,-56.249L210.767,-44.386L210.012,-44.386L207.351,-56.191L207.351,-41.254L206.224,-41.254ZM215.671,-41.254L219.435,-61.702L220.466,-61.702L224.243,-41.254L222.972,-41.254L222.085,-46.243L217.805,-46.243L216.93,-41.254L215.671,-41.254ZM219.939,-58.367L218.248,-48.679L221.665,-48.679L219.963,-58.367L219.939,-58.367ZM232.587,-36.584L232.587,-41.254L225.346,-41.254L225.346,-61.702L226.593,-61.702L226.593,-43.777L231.256,-43.777L231.256,-61.702L232.491,-61.702L232.491,-43.777L233.69,-43.777L233.69,-36.584L232.587,-36.584ZM234.949,-41.254L234.949,-61.702L236.1,-61.702L236.1,-46.156L240.955,-61.702L241.89,-61.702L241.89,-41.254L240.739,-41.254L240.739,-56.858L235.884,-41.254L234.949,-41.254ZM247.525,-40.993C246.718,-40.993 246.018,-41.423 245.427,-42.284C244.835,-43.144 244.378,-44.362 244.054,-45.938C243.73,-47.514 243.569,-49.366 243.569,-51.493C243.569,-53.639 243.73,-55.495 244.054,-57.061C244.378,-58.628 244.835,-59.836 245.427,-60.687C246.018,-61.538 246.718,-61.963 247.525,-61.963C248.324,-61.963 249.021,-61.538 249.617,-60.687C250.212,-59.836 250.672,-58.628 250.996,-57.061C251.319,-55.495 251.481,-53.649 251.481,-51.522C251.481,-49.375 251.319,-47.514 250.996,-45.938C250.672,-44.362 250.212,-43.144 249.617,-42.284C249.021,-41.423 248.324,-40.993 247.525,-40.993ZM247.525,-43.603C248.364,-43.603 249.017,-44.295 249.485,-45.677C249.953,-47.06 250.186,-48.998 250.186,-51.493C250.186,-53.987 249.955,-55.921 249.491,-57.293C249.027,-58.666 248.372,-59.353 247.525,-59.353C246.686,-59.353 246.032,-58.666 245.565,-57.293C245.097,-55.921 244.863,-53.987 244.863,-51.493C244.863,-48.998 245.097,-47.06 245.565,-45.677C246.032,-44.295 246.686,-43.603 247.525,-43.603ZM253.148,-41.254L253.148,-61.702L254.394,-61.702L254.394,-52.885L259.13,-52.885L259.13,-61.702L260.365,-61.702L260.365,-41.254L259.13,-41.254L259.13,-50.361L254.394,-50.361L254.394,-41.254L253.148,-41.254ZM262.343,-41.254L262.343,-61.702L267.81,-61.702L267.81,-59.266L263.542,-59.266L263.542,-52.856L267.558,-52.856L267.558,-50.419L263.542,-50.419L263.542,-43.69L267.81,-43.69L267.81,-41.254L262.343,-41.254ZM269.404,-41.254L269.404,-61.702L270.651,-61.702L270.651,-52.885L275.387,-52.885L275.387,-61.702L276.622,-61.702L276.622,-41.254L275.387,-41.254L275.387,-50.361L270.651,-50.361L270.651,-41.254L269.404,-41.254ZM288.994,-36.584L288.994,-41.254L281.753,-41.254L281.753,-61.702L283,-61.702L283,-43.777L287.663,-43.777L287.663,-61.702L288.898,-61.702L288.898,-43.777L290.097,-43.777L290.097,-36.584L288.994,-36.584ZM291.356,-41.254L291.356,-61.702L296.823,-61.702L296.823,-59.266L292.555,-59.266L292.555,-52.856L296.571,-52.856L296.571,-50.419L292.555,-50.419L292.555,-43.69L296.823,-43.69L296.823,-41.254L291.356,-41.254ZM298.417,-41.254L298.417,-61.702L299.664,-61.702L299.664,-52.885L304.399,-52.885L304.399,-61.702L305.634,-61.702L305.634,-41.254L304.399,-41.254L304.399,-50.361L299.664,-50.361L299.664,-41.254L298.417,-41.254ZM309.674,-41.254L309.674,-59.179L306.677,-59.179L306.677,-61.702L313.907,-61.702L313.907,-59.179L310.909,-59.179L310.909,-41.254L309.674,-41.254ZM316.664,-41.254L316.664,-59.179L314.146,-59.179L314.146,-61.702L317.911,-61.702L317.911,-52.914L320.32,-52.914C321.216,-52.914 321.911,-52.426 322.407,-51.449C322.902,-50.473 323.15,-49.027 323.15,-47.113C323.15,-45.198 322.902,-43.743 322.407,-42.748C321.911,-41.752 321.216,-41.254 320.32,-41.254L316.664,-41.254ZM317.911,-43.69L320.189,-43.69C321.364,-43.69 321.951,-44.821 321.951,-47.084C321.951,-49.346 321.364,-50.477 320.189,-50.477L317.911,-50.477L317.911,-43.69ZM324.636,-41.254L324.636,-61.702L328.137,-61.702C329.048,-61.702 329.752,-61.156 330.247,-60.063C330.743,-58.971 330.99,-57.438 330.99,-55.466C330.99,-53.475 330.743,-51.932 330.247,-50.84C329.752,-49.747 329.048,-49.201 328.137,-49.201L325.883,-49.201L325.883,-41.254L324.636,-41.254ZM325.883,-51.609L327.957,-51.609C329.172,-51.609 329.78,-52.894 329.78,-55.466C329.78,-58.019 329.172,-59.295 327.957,-59.295L325.883,-59.295L325.883,-51.609ZM335.342,-47.809L335.342,-50.187L338.795,-50.187L338.795,-47.809L335.342,-47.809ZM343.782,-41.254L343.782,-61.702L349.213,-61.702L349.213,-59.179L345.029,-59.179L345.029,-41.254L343.782,-41.254ZM348.446,-41.254L352.211,-61.702L353.242,-61.702L357.018,-41.254L355.747,-41.254L354.86,-46.243L350.58,-46.243L349.705,-41.254L348.446,-41.254ZM352.714,-58.367L351.024,-48.679L354.44,-48.679L352.738,-58.367L352.714,-58.367ZM358.121,-41.254L358.121,-61.702L363.816,-61.702L363.816,-59.266L359.32,-59.266L359.32,-52.914L361.79,-52.914C362.677,-52.914 363.37,-52.426 363.87,-51.449C364.369,-50.473 364.619,-49.027 364.619,-47.113C364.619,-45.198 364.369,-43.743 363.87,-42.748C363.37,-41.752 362.677,-41.254 361.79,-41.254L358.121,-41.254ZM359.32,-43.69L361.646,-43.69C362.821,-43.69 363.408,-44.821 363.408,-47.084C363.408,-49.346 362.821,-50.477 361.646,-50.477L359.32,-50.477L359.32,-43.69ZM366.105,-41.254L366.105,-61.702L369.606,-61.702C370.517,-61.702 371.221,-61.156 371.716,-60.063C372.212,-58.971 372.459,-57.438 372.459,-55.466C372.459,-53.475 372.212,-51.932 371.716,-50.84C371.221,-49.747 370.517,-49.201 369.606,-49.201L367.352,-49.201L367.352,-41.254L366.105,-41.254ZM367.352,-51.609L369.426,-51.609C370.641,-51.609 371.249,-52.894 371.249,-55.466C371.249,-58.019 370.641,-59.295 369.426,-59.295L367.352,-59.295L367.352,-51.609ZM377.351,-40.993C376.544,-40.993 375.844,-41.423 375.253,-42.284C374.661,-43.144 374.204,-44.362 373.88,-45.938C373.556,-47.514 373.395,-49.366 373.395,-51.493C373.395,-53.639 373.556,-55.495 373.88,-57.061C374.204,-58.628 374.661,-59.836 375.253,-60.687C375.844,-61.538 376.544,-61.963 377.351,-61.963C378.15,-61.963 378.847,-61.538 379.443,-60.687C380.038,-59.836 380.498,-58.628 380.822,-57.061C381.145,-55.495 381.307,-53.649 381.307,-51.522C381.307,-49.375 381.145,-47.514 380.822,-45.938C380.498,-44.362 380.038,-43.144 379.443,-42.284C378.847,-41.423 378.15,-40.993 377.351,-40.993ZM377.351,-43.603C378.19,-43.603 378.843,-44.295 379.311,-45.677C379.779,-47.06 380.012,-48.998 380.012,-51.493C380.012,-53.987 379.781,-55.921 379.317,-57.293C378.853,-58.666 378.198,-59.353 377.351,-59.353C376.512,-59.353 375.858,-58.666 375.391,-57.293C374.923,-55.921 374.689,-53.987 374.689,-51.493C374.689,-48.998 374.923,-47.06 375.391,-45.677C375.858,-44.295 376.512,-43.603 377.351,-43.603ZM382.974,-41.254L382.974,-61.702L386.498,-61.702C387.377,-61.702 388.059,-61.233 388.542,-60.295C389.026,-59.358 389.268,-58.048 389.268,-56.365C389.268,-55.263 389.148,-54.316 388.908,-53.523C388.668,-52.73 388.341,-52.15 387.925,-51.783C388.412,-51.473 388.792,-50.903 389.064,-50.071C389.336,-49.24 389.471,-48.186 389.471,-46.91C389.471,-45.092 389.222,-43.695 388.722,-42.719C388.223,-41.742 387.529,-41.254 386.642,-41.254L382.974,-41.254ZM384.172,-52.769L386.306,-52.769C387.473,-52.769 388.057,-53.871 388.057,-56.075C388.057,-58.28 387.473,-59.382 386.306,-59.382L384.172,-59.382L384.172,-52.769ZM384.172,-43.574L386.498,-43.574C387.673,-43.574 388.261,-44.725 388.261,-47.026C388.261,-49.307 387.673,-50.448 386.498,-50.448L384.172,-50.448L384.172,-43.574ZM394.818,-40.993C394.011,-40.993 393.312,-41.423 392.72,-42.284C392.129,-43.144 391.671,-44.362 391.348,-45.938C391.024,-47.514 390.862,-49.366 390.862,-51.493C390.862,-53.639 391.024,-55.495 391.348,-57.061C391.671,-58.628 392.129,-59.836 392.72,-60.687C393.312,-61.538 394.011,-61.963 394.818,-61.963C395.618,-61.963 396.315,-61.538 396.911,-60.687C397.506,-59.836 397.966,-58.628 398.289,-57.061C398.613,-55.495 398.775,-53.649 398.775,-51.522C398.775,-49.375 398.613,-47.514 398.289,-45.938C397.966,-44.362 397.506,-43.144 396.911,-42.284C396.315,-41.423 395.618,-40.993 394.818,-40.993ZM394.818,-43.603C395.658,-43.603 396.311,-44.295 396.779,-45.677C397.246,-47.06 397.48,-48.998 397.48,-51.493C397.48,-53.987 397.248,-55.921 396.785,-57.293C396.321,-58.666 395.666,-59.353 394.818,-59.353C393.979,-59.353 393.326,-58.666 392.858,-57.293C392.391,-55.921 392.157,-53.987 392.157,-51.493C392.157,-48.998 392.391,-47.06 392.858,-45.677C393.326,-44.295 393.979,-43.603 394.818,-43.603Z" style="fill:rgb(0,157,71);"/>
        </g>
    </g>
</svg>
